<svg xmlns="http://www.w3.org/2000/svg" xmlns:xlink="http://www.w3.org/1999/xlink" version="1.1" x="0px" y="0px" viewBox="-20 -20 552 552" xml:space="preserve" data-icon="true" fill="#14524A"><g><path d="M49.3,264.6c8.1,0.9,14.8-5.6,15.6-12.5c3.5-32.4,15.3-63.4,34.1-89.8c4.5-6.3,3.1-15.2-3.3-19.7   c-6.3-4.5-15.2-3.1-19.7,3.3C54.4,176.2,40.9,211.8,36.8,249C35.9,256.7,41.5,263.7,49.3,264.6z"></path><path d="M375.5,121.5C375.5,55.6,321.9,2,256,2c-65.9,0-119.5,53.6-119.5,119.5c0,65.9,53.6,119.5,119.5,119.5   C321.9,241.1,375.5,187.5,375.5,121.5z M256,212.9c-23.2,0-44.3-8.7-60.4-23c16.6-14.7,37.9-23,60.4-23c22.4,0,43.8,8.3,60.4,23   C300.3,204.1,279.2,212.9,256,212.9z M256,138.7c-29.1,0-56.7,10.7-78.4,29.5c-8.2-13.7-13-29.6-13-46.6c0-50.4,41-91.3,91.3-91.3   c50.4,0,91.3,41,91.3,91.3c0,17.1-4.8,33-13,46.7C312.7,149.4,285.1,138.7,256,138.7z"></path><path d="M256,39.2c-25,0-45.3,20.3-45.3,45.3c0,25,20.3,45.3,45.3,45.3c25,0,45.3-20.3,45.3-45.3C301.3,59.5,281,39.2,256,39.2z    M256,101.5c-9.4,0-17-7.6-17-17c0-9.4,7.6-17,17-17c9.4,0,17,7.6,17,17C273,93.9,265.4,101.5,256,101.5z"></path><path d="M390.5,270.9c-65.9,0-119.5,53.6-119.5,119.5S324.5,510,390.5,510c65.9,0,119.5-53.6,119.5-119.5S456.4,270.9,390.5,270.9z    M390.5,481.8c-23.1,0-44.2-8.7-60.3-22.9c16.6-14.7,37.9-23,60.3-23c22.4,0,43.7,8.4,60.3,23C434.7,473.1,413.6,481.8,390.5,481.8   z M468.8,437.1c-21.6-18.8-49.3-29.5-78.3-29.5c-29.1,0-56.7,10.7-78.3,29.6c-8.2-13.7-13-29.6-13-46.7c0-50.4,41-91.3,91.3-91.3   c50.3,0,91.3,41,91.3,91.3C481.8,407.5,477,423.5,468.8,437.1z"></path><path d="M390.5,308.1c-25,0-45.3,20.3-45.3,45.3c0,25,20.3,45.3,45.3,45.3c25,0,45.3-20.3,45.3-45.3   C435.7,328.5,415.4,308.1,390.5,308.1z M390.5,370.5c-9.4,0-17.1-7.7-17.1-17.1s7.7-17,17.1-17c9.4,0,17,7.6,17,17   S399.9,370.5,390.5,370.5z"></path><path d="M121.5,270.9C55.6,270.9,2,324.5,2,390.5S55.6,510,121.5,510c65.9,0,119.5-53.6,119.5-119.5S187.5,270.9,121.5,270.9z    M121.5,481.8c-23.2,0-44.3-8.7-60.4-23c16.6-14.7,37.9-23,60.4-23c22.4,0,43.8,8.3,60.4,23C165.8,473.1,144.7,481.8,121.5,481.8z    M199.9,437.1c-21.6-18.9-49.3-29.5-78.4-29.5c-29.1,0-56.7,10.7-78.4,29.5c-8.2-13.7-13-29.6-13-46.6c0-50.4,41-91.3,91.3-91.3   c50.3,0,91.3,41,91.3,91.3C212.9,407.5,208.1,423.4,199.9,437.1z"></path><path d="M121.5,308.1c-25,0-45.3,20.3-45.3,45.3c0,25,20.3,45.3,45.3,45.3c25,0,45.3-20.3,45.3-45.3   C166.8,328.5,146.5,308.1,121.5,308.1z M121.5,370.5c-9.4,0-17-7.7-17-17.1s7.6-17,17-17c9.4,0,17,7.6,17,17   S130.9,370.5,121.5,370.5z"></path><path d="M443.3,252.1c0.8,6.9,7.4,13.4,15.6,12.5c7.7-0.8,13.3-7.8,12.5-15.6c-4.1-37.2-17.6-72.8-39.2-103.1   c-4.5-6.3-13.3-7.8-19.7-3.3c-6.3,4.5-7.8,13.3-3.3,19.7C427.9,188.6,439.8,219.7,443.3,252.1z"></path></g></svg>